<svg xmlns="http://www.w3.org/2000/svg" xmlns:xlink="http://www.w3.org/1999/xlink" width="2000" zoomAndPan="magnify" viewBox="0 0 1500 1499.999933" height="2000" preserveAspectRatio="xMidYMid meet" version="1.0"><defs><clipPath id="a0d0ab27cb"><path d="M 39.191406 287 L 1459 287 L 1459 1213 L 39.191406 1213 Z M 39.191406 287 " clip-rule="nonzero"/></clipPath></defs><path fill="#ffffff" d="M 711.496094 829.199219 L 684.210938 829.199219 C 676.367188 829.199219 669.234375 825.972656 664.054688 820.789062 L 663.238281 820.011719 C 658.554688 814.9375 655.644531 808.121094 655.644531 800.636719 C 655.644531 790.308594 647.269531 781.898438 636.90625 781.898438 C 626.546875 781.898438 618.171875 790.273438 618.171875 800.636719 C 618.171875 818.128906 625.128906 834.132812 636.410156 846.019531 L 637.582031 847.296875 C 648.40625 858.121094 662.988281 865.183594 679.136719 866.425781 L 679.136719 887.609375 C 679.136719 897.933594 687.507812 906.34375 697.871094 906.34375 C 708.234375 906.34375 716.605469 897.96875 716.605469 887.609375 L 716.605469 866.425781 C 732.753906 865.183594 747.335938 858.121094 758.160156 847.296875 L 758.160156 847.226562 C 770.117188 835.269531 777.535156 818.769531 777.535156 800.636719 C 777.535156 782.503906 770.082031 766.003906 758.160156 754.042969 L 758.089844 753.972656 C 746.128906 742.015625 729.628906 734.597656 711.496094 734.597656 L 684.210938 734.597656 C 676.367188 734.597656 669.234375 731.367188 664.054688 726.1875 L 663.238281 725.40625 C 658.554688 720.332031 655.644531 713.519531 655.644531 706.03125 C 655.644531 698.15625 658.835938 691.023438 663.984375 685.878906 L 664.054688 685.878906 C 669.234375 680.695312 676.367188 677.46875 684.210938 677.46875 L 711.496094 677.46875 C 719.375 677.46875 726.507812 680.695312 731.6875 685.84375 C 736.832031 691.023438 740.0625 698.191406 740.0625 706.03125 C 740.0625 716.359375 748.4375 724.769531 758.796875 724.769531 C 769.160156 724.769531 777.535156 716.394531 777.535156 706.03125 C 777.535156 687.898438 770.082031 671.398438 758.160156 659.441406 L 758.089844 659.371094 C 747.265625 648.546875 732.71875 641.523438 716.605469 640.246094 L 716.605469 619.058594 C 716.605469 608.699219 708.234375 600.324219 697.871094 600.324219 C 687.507812 600.324219 679.136719 608.699219 679.136719 619.058594 L 679.136719 640.246094 C 662.988281 641.484375 648.40625 648.546875 637.617188 659.40625 C 625.625 671.398438 618.171875 687.898438 618.171875 705.996094 C 618.171875 723.492188 625.128906 739.496094 636.410156 751.382812 L 637.582031 752.660156 C 649.539062 764.617188 666.078125 772.035156 684.246094 772.035156 L 711.53125 772.035156 C 719.410156 772.035156 726.542969 775.265625 731.722656 780.410156 C 736.867188 785.589844 740.097656 792.757812 740.097656 800.601562 C 740.097656 808.476562 736.867188 815.609375 731.6875 820.753906 C 726.472656 825.972656 719.339844 829.199219 711.496094 829.199219 Z M 711.496094 829.199219 " fill-opacity="1" fill-rule="nonzero"/><path fill="#ffffff" d="M 697.871094 990.90625 C 763.480469 990.90625 822.882812 964.289062 865.855469 921.320312 C 908.863281 878.347656 935.441406 818.945312 935.441406 753.335938 C 935.441406 687.722656 908.828125 628.320312 865.855469 585.347656 C 822.882812 542.34375 763.480469 515.765625 697.871094 515.765625 C 632.257812 515.765625 572.859375 542.378906 529.886719 585.347656 C 486.878906 628.355469 460.300781 687.757812 460.300781 753.335938 C 460.300781 818.945312 486.914062 878.347656 529.886719 921.320312 C 572.859375 964.328125 632.257812 990.90625 697.871094 990.90625 Z M 559.90625 615.371094 C 595.214844 580.0625 644.003906 558.238281 697.871094 558.238281 C 751.738281 558.238281 800.527344 580.097656 835.835938 615.371094 C 871.144531 650.675781 892.964844 699.46875 892.964844 753.335938 C 892.964844 807.199219 871.105469 855.992188 835.835938 891.300781 C 800.527344 926.605469 751.738281 948.429688 697.871094 948.429688 C 644.003906 948.429688 595.214844 926.570312 559.90625 891.300781 C 524.597656 855.992188 502.777344 807.199219 502.777344 753.335938 C 502.742188 699.46875 524.597656 650.675781 559.90625 615.371094 Z M 559.90625 615.371094 " fill-opacity="1" fill-rule="nonzero"/><g clip-path="url(#a0d0ab27cb)"><path fill="#ffffff" d="M 1458.378906 928.769531 L 1356.324219 434.824219 L 1356.324219 434.71875 C 1356.324219 431.699219 1355.6875 428.828125 1354.550781 426.234375 L 1329.429688 304.734375 C 1327.085938 293.273438 1315.910156 285.894531 1304.484375 288.234375 L 698.261719 413.496094 L 60.636719 413.496094 C 48.925781 413.496094 39.417969 423.007812 39.417969 434.71875 L 39.417969 1071.953125 C 39.417969 1083.660156 48.925781 1093.171875 60.636719 1093.171875 L 147.75 1093.171875 L 168.828125 1195.117188 C 171.171875 1206.582031 182.347656 1213.960938 193.773438 1211.621094 L 766.996094 1093.171875 L 1335.070312 1093.171875 C 1346.78125 1093.171875 1356.289062 1083.660156 1356.289062 1071.953125 L 1356.289062 971.421875 L 1441.84375 953.753906 C 1453.304688 951.410156 1460.722656 940.230469 1458.378906 928.769531 Z M 1292.277344 333.976562 L 1308.707031 413.496094 L 907.371094 413.496094 Z M 206.015625 1165.878906 L 191.007812 1093.171875 L 557.917969 1093.171875 Z M 1313.851562 1050.730469 L 81.890625 1050.730469 L 81.890625 455.972656 L 1313.851562 455.972656 Z M 1356.324219 928.203125 L 1356.324219 643.933594 L 1412.640625 916.5625 Z M 1356.324219 928.203125 " fill-opacity="1" fill-rule="nonzero"/></g><path fill="#ffffff" d="M 169.789062 660.082031 C 181.496094 660.082031 191.007812 650.570312 191.007812 638.859375 L 191.007812 559.304688 L 270.5625 559.304688 C 282.273438 559.304688 291.785156 549.792969 291.785156 538.082031 C 291.785156 526.375 282.273438 516.863281 270.5625 516.863281 L 169.789062 516.863281 C 158.078125 516.863281 148.566406 526.375 148.566406 538.082031 L 148.566406 638.859375 C 148.53125 650.570312 158.042969 660.082031 169.789062 660.082031 Z M 169.789062 660.082031 " fill-opacity="1" fill-rule="nonzero"/><path fill="#ffffff" d="M 270.5625 947.363281 L 191.007812 947.363281 L 191.007812 867.808594 C 191.007812 856.097656 181.496094 846.589844 169.789062 846.589844 C 158.078125 846.589844 148.566406 856.097656 148.566406 867.808594 L 148.566406 968.585938 C 148.566406 980.292969 158.078125 989.804688 169.789062 989.804688 L 270.5625 989.804688 C 282.273438 989.804688 291.785156 980.292969 291.785156 968.585938 C 291.785156 956.875 282.273438 947.363281 270.5625 947.363281 Z M 270.5625 947.363281 " fill-opacity="1" fill-rule="nonzero"/><path fill="#ffffff" d="M 1125.140625 559.304688 L 1204.699219 559.304688 L 1204.699219 638.859375 C 1204.699219 650.570312 1214.210938 660.082031 1225.917969 660.082031 C 1237.628906 660.082031 1247.140625 650.570312 1247.140625 638.859375 L 1247.140625 538.082031 C 1247.140625 526.375 1237.628906 516.863281 1225.917969 516.863281 L 1125.144531 516.863281 C 1113.433594 516.863281 1103.921875 526.375 1103.921875 538.082031 C 1103.921875 549.792969 1113.433594 559.304688 1125.140625 559.304688 Z M 1125.140625 559.304688 " fill-opacity="1" fill-rule="nonzero"/><path fill="#ffffff" d="M 1125.140625 989.839844 L 1225.917969 989.839844 C 1237.628906 989.839844 1247.140625 980.328125 1247.140625 968.621094 L 1247.140625 867.84375 C 1247.140625 856.132812 1237.628906 846.625 1225.917969 846.625 C 1214.210938 846.625 1204.699219 856.132812 1204.699219 867.84375 L 1204.699219 947.398438 L 1125.140625 947.398438 C 1113.433594 947.398438 1103.921875 956.910156 1103.921875 968.621094 C 1103.921875 980.328125 1113.433594 989.839844 1125.140625 989.839844 Z M 1125.140625 989.839844 " fill-opacity="1" fill-rule="nonzero"/></svg>