<svg xmlns="http://www.w3.org/2000/svg" xmlns:xlink="http://www.w3.org/1999/xlink" width="2000" zoomAndPan="magnify" viewBox="0 0 1500 1499.999933" height="2000" preserveAspectRatio="xMidYMid meet" version="1.0"><defs><g/><clipPath id="59af771f89"><path d="M 275 0.0390625 L 1437.320312 0.0390625 L 1437.320312 242.679688 L 275 242.679688 Z M 275 0.0390625 " clip-rule="nonzero"/></clipPath><clipPath id="a6989ff1a1"><path d="M 334 87 L 450 87 L 450 242.679688 L 334 242.679688 Z M 334 87 " clip-rule="nonzero"/></clipPath><clipPath id="5955880a83"><rect x="0" width="1163" y="0" height="243"/></clipPath><clipPath id="db03a3fd06"><path d="M 1 45.5625 L 275.894531 45.5625 L 275.894531 224.957031 L 1 224.957031 Z M 1 45.5625 " clip-rule="nonzero"/></clipPath><clipPath id="3f4d168a44"><rect x="0" width="1438" y="0" height="243"/></clipPath></defs><g transform="matrix(1, 0, 0, 1, 31, 695)"><g clip-path="url(#3f4d168a44)"><g clip-path="url(#59af771f89)"><g transform="matrix(1, 0, 0, 1, 275, 0.000000000000113687)"><g clip-path="url(#5955880a83)"><g fill="#000000" fill-opacity="1"><g transform="translate(0.302364, 195.18464)"><g><path d="M 69.4375 -104.96875 C 78.625 -104.96875 84.015625 -102.4375 85.609375 -97.375 C 86.398438 -94.851562 86.796875 -91.53125 86.796875 -87.40625 C 86.796875 -83.28125 86.363281 -79.984375 85.5 -77.515625 C 84.632812 -75.054688 83.273438 -73.296875 81.421875 -72.234375 C 78.617188 -70.640625 74.5625 -69.84375 69.25 -69.84375 L 56.46875 -70.640625 L 56.46875 -17.15625 C 56.46875 -12.101562 55.835938 -8.34375 54.578125 -5.875 C 53.316406 -3.414062 51.382812 -1.785156 48.78125 -0.984375 C 46.1875 -0.191406 42.828125 0.203125 38.703125 0.203125 C 34.585938 0.203125 31.296875 -0.226562 28.828125 -1.09375 C 26.367188 -1.957031 24.609375 -3.351562 23.546875 -5.28125 C 22.484375 -7.21875 21.847656 -8.984375 21.640625 -10.578125 C 21.441406 -12.171875 21.34375 -14.5 21.34375 -17.5625 L 21.34375 -70.4375 L 14.171875 -70.4375 C 10.710938 -70.707031 8.25 -71.503906 6.78125 -72.828125 C 4.257812 -75.359375 3 -80.21875 3 -87.40625 C 3 -98.3125 6.921875 -103.765625 14.765625 -103.765625 L 21.34375 -103.765625 L 21.34375 -114.34375 C 21.34375 -124.582031 25 -133.859375 32.3125 -142.171875 C 39.632812 -150.492188 50.210938 -154.65625 64.046875 -154.65625 C 67.109375 -154.65625 69.40625 -154.550781 70.9375 -154.34375 C 72.46875 -154.144531 74.234375 -153.515625 76.234375 -152.453125 C 79.816406 -150.722656 81.609375 -145.601562 81.609375 -137.09375 C 81.609375 -130.707031 80.476562 -126.113281 78.21875 -123.3125 C 76.351562 -121.1875 73.425781 -119.992188 69.4375 -119.734375 C 68.238281 -119.734375 66.378906 -119.734375 63.859375 -119.734375 C 58.929688 -119.734375 56.46875 -118.066406 56.46875 -114.734375 L 56.46875 -103.765625 Z M 69.4375 -104.96875 "/></g></g></g><g fill="#000000" fill-opacity="1"><g transform="translate(90.086453, 195.18464)"><g><path d="M 54.671875 -0.40625 C 41.234375 -0.40625 30.09375 -5.492188 21.25 -15.671875 C 12.40625 -25.847656 7.984375 -38.25 7.984375 -52.875 L 7.984375 -87.796875 C 7.984375 -90.992188 8.082031 -93.320312 8.28125 -94.78125 C 8.476562 -96.25 9.046875 -97.976562 9.984375 -99.96875 C 11.835938 -103.5625 17.023438 -105.359375 25.546875 -105.359375 C 34.859375 -105.359375 40.3125 -102.832031 41.90625 -97.78125 C 42.707031 -95.644531 43.109375 -92.25 43.109375 -87.59375 L 43.109375 -52.6875 C 43.109375 -47.226562 44.671875 -42.96875 47.796875 -39.90625 C 50.921875 -36.84375 55.109375 -35.3125 60.359375 -35.3125 C 65.617188 -35.3125 69.875 -36.90625 73.125 -40.09375 C 76.382812 -43.289062 78.015625 -47.488281 78.015625 -52.6875 L 78.015625 -88 C 78.015625 -91.0625 78.113281 -93.351562 78.3125 -94.875 C 78.519531 -96.40625 79.15625 -98.171875 80.21875 -100.171875 C 81.945312 -103.628906 87.066406 -105.359375 95.578125 -105.359375 C 103.960938 -105.359375 109.085938 -103.5625 110.953125 -99.96875 C 111.878906 -97.976562 112.441406 -96.21875 112.640625 -94.6875 C 112.835938 -93.15625 112.9375 -90.859375 112.9375 -87.796875 L 112.9375 -17.15625 C 112.9375 -14.226562 112.835938 -12 112.640625 -10.46875 C 112.441406 -8.945312 111.8125 -7.253906 110.75 -5.390625 C 108.75 -1.929688 103.628906 -0.203125 95.390625 -0.203125 C 87.273438 -0.203125 82.285156 -1.796875 80.421875 -4.984375 C 79.085938 -7.242188 78.421875 -9.972656 78.421875 -13.171875 C 77.890625 -12.234375 76.691406 -10.898438 74.828125 -9.171875 C 72.960938 -7.441406 71.164062 -5.984375 69.4375 -4.796875 C 64.914062 -1.867188 59.992188 -0.40625 54.671875 -0.40625 Z M 54.671875 -0.40625 "/></g></g></g><g fill="#000000" fill-opacity="1"><g transform="translate(210.995706, 195.18464)"><g><path d="M 7.984375 -137.09375 C 7.984375 -140.144531 8.082031 -142.4375 8.28125 -143.96875 C 8.476562 -145.5 9.046875 -147.265625 9.984375 -149.265625 C 11.835938 -152.859375 17.023438 -154.65625 25.546875 -154.65625 C 33.660156 -154.65625 38.710938 -152.859375 40.703125 -149.265625 C 41.765625 -147.265625 42.394531 -145.46875 42.59375 -143.875 C 42.800781 -142.28125 42.90625 -139.953125 42.90625 -136.890625 L 42.90625 -44.5 C 42.90625 -39.707031 43.300781 -36.679688 44.09375 -35.421875 C 44.894531 -34.160156 46.660156 -33.53125 49.390625 -33.53125 C 52.117188 -33.53125 53.945312 -33.425781 54.875 -33.21875 C 55.800781 -33.019531 56.929688 -32.457031 58.265625 -31.53125 C 60.929688 -29.800781 62.265625 -25.078125 62.265625 -17.359375 C 62.265625 -8.984375 60.929688 -3.863281 58.265625 -2 C 54.804688 0.394531 46.5625 0.796875 33.53125 -0.796875 C 23.28125 -2.128906 16.625 -5.519531 13.5625 -10.96875 C 9.84375 -17.488281 7.984375 -27.867188 7.984375 -42.109375 Z M 7.984375 -137.09375 "/></g></g></g><g fill="#000000" fill-opacity="1"><g transform="translate(276.238809, 195.18464)"><g><path d="M 7.984375 -137.09375 C 7.984375 -140.144531 8.082031 -142.4375 8.28125 -143.96875 C 8.476562 -145.5 9.046875 -147.265625 9.984375 -149.265625 C 11.835938 -152.859375 17.023438 -154.65625 25.546875 -154.65625 C 33.660156 -154.65625 38.710938 -152.859375 40.703125 -149.265625 C 41.765625 -147.265625 42.394531 -145.46875 42.59375 -143.875 C 42.800781 -142.28125 42.90625 -139.953125 42.90625 -136.890625 L 42.90625 -44.5 C 42.90625 -39.707031 43.300781 -36.679688 44.09375 -35.421875 C 44.894531 -34.160156 46.660156 -33.53125 49.390625 -33.53125 C 52.117188 -33.53125 53.945312 -33.425781 54.875 -33.21875 C 55.800781 -33.019531 56.929688 -32.457031 58.265625 -31.53125 C 60.929688 -29.800781 62.265625 -25.078125 62.265625 -17.359375 C 62.265625 -8.984375 60.929688 -3.863281 58.265625 -2 C 54.804688 0.394531 46.5625 0.796875 33.53125 -0.796875 C 23.28125 -2.128906 16.625 -5.519531 13.5625 -10.96875 C 9.84375 -17.488281 7.984375 -27.867188 7.984375 -42.109375 Z M 7.984375 -137.09375 "/></g></g></g><g clip-path="url(#a6989ff1a1)"><g fill="#000000" fill-opacity="1"><g transform="translate(331.5046, 195.18464)"><g><path d="M 105.765625 -103.96875 C 113.609375 -100.507812 117.53125 -96.316406 117.53125 -91.390625 C 117.53125 -88.992188 117 -86.734375 115.9375 -84.609375 C 114.875 -82.484375 114.34375 -81.351562 114.34375 -81.21875 L 62.0625 35.71875 C 61 38.25 60.097656 40.175781 59.359375 41.5 C 58.628906 42.832031 57.46875 44.097656 55.875 45.296875 C 54.28125 46.492188 52.285156 47.09375 49.890625 47.09375 C 47.492188 47.09375 43.96875 46.09375 39.3125 44.09375 C 31.457031 40.632812 27.53125 36.515625 27.53125 31.734375 C 27.53125 28.535156 33.914062 13.300781 46.6875 -13.96875 L 6.984375 -80.8125 C 4.328125 -85.207031 3 -88.46875 3 -90.59375 C 3 -94.851562 6.585938 -99.109375 13.765625 -103.359375 C 18.285156 -106.023438 21.8125 -107.359375 24.34375 -107.359375 C 26.875 -107.359375 28.9375 -106.820312 30.53125 -105.75 C 32.125 -104.6875 33.285156 -103.585938 34.015625 -102.453125 C 34.753906 -101.328125 38.414062 -95.144531 45 -83.90625 C 51.582031 -72.664062 57.867188 -62.191406 63.859375 -52.484375 C 64.523438 -54.609375 68.113281 -62.820312 74.625 -77.125 C 81.144531 -91.425781 84.640625 -99.039062 85.109375 -99.96875 C 85.578125 -100.90625 86.34375 -102.035156 87.40625 -103.359375 C 89.132812 -105.617188 91.5625 -106.75 94.6875 -106.75 C 97.8125 -106.75 101.503906 -105.820312 105.765625 -103.96875 Z M 105.765625 -103.96875 "/></g></g></g></g><g fill="#000000" fill-opacity="1"><g transform="translate(452.014818, 195.18464)"><g><path d="M 104.765625 -146.265625 C 107.828125 -146.265625 110.117188 -146.164062 111.640625 -145.96875 C 113.171875 -145.769531 114.898438 -145.132812 116.828125 -144.0625 C 118.765625 -143 120.128906 -141.203125 120.921875 -138.671875 C 121.722656 -136.148438 122.125 -132.757812 122.125 -128.5 C 122.125 -124.25 121.722656 -120.859375 120.921875 -118.328125 C 120.128906 -115.804688 118.734375 -114.046875 116.734375 -113.046875 C 114.734375 -112.046875 112.96875 -111.445312 111.4375 -111.25 C 109.914062 -111.050781 107.554688 -110.953125 104.359375 -110.953125 L 43.296875 -110.953125 L 43.296875 -90.796875 L 82.609375 -90.796875 C 85.804688 -90.796875 88.164062 -90.691406 89.6875 -90.484375 C 91.21875 -90.285156 92.984375 -89.65625 94.984375 -88.59375 C 98.441406 -86.601562 100.171875 -81.347656 100.171875 -72.828125 C 100.171875 -63.515625 97.644531 -57.992188 92.59375 -56.265625 C 90.457031 -55.609375 87.0625 -55.28125 82.40625 -55.28125 L 43.296875 -55.28125 L 43.296875 -17.5625 C 43.296875 -14.363281 43.195312 -12.03125 43 -10.5625 C 42.800781 -9.101562 42.171875 -7.378906 41.109375 -5.390625 C 39.242188 -1.796875 34.054688 0 25.546875 0 C 16.234375 0 10.773438 -2.523438 9.171875 -7.578125 C 8.378906 -9.710938 7.984375 -13.109375 7.984375 -17.765625 L 7.984375 -128.703125 C 7.984375 -135.492188 9.242188 -140.117188 11.765625 -142.578125 C 14.296875 -145.035156 19.085938 -146.265625 26.140625 -146.265625 Z M 104.765625 -146.265625 "/></g></g></g><g fill="#000000" fill-opacity="1"><g transform="translate(567.136429, 195.18464)"><g><path d="M 54.671875 -0.40625 C 41.234375 -0.40625 30.09375 -5.492188 21.25 -15.671875 C 12.40625 -25.847656 7.984375 -38.25 7.984375 -52.875 L 7.984375 -87.796875 C 7.984375 -90.992188 8.082031 -93.320312 8.28125 -94.78125 C 8.476562 -96.25 9.046875 -97.976562 9.984375 -99.96875 C 11.835938 -103.5625 17.023438 -105.359375 25.546875 -105.359375 C 34.859375 -105.359375 40.3125 -102.832031 41.90625 -97.78125 C 42.707031 -95.644531 43.109375 -92.25 43.109375 -87.59375 L 43.109375 -52.6875 C 43.109375 -47.226562 44.671875 -42.96875 47.796875 -39.90625 C 50.921875 -36.84375 55.109375 -35.3125 60.359375 -35.3125 C 65.617188 -35.3125 69.875 -36.90625 73.125 -40.09375 C 76.382812 -43.289062 78.015625 -47.488281 78.015625 -52.6875 L 78.015625 -88 C 78.015625 -91.0625 78.113281 -93.351562 78.3125 -94.875 C 78.519531 -96.40625 79.15625 -98.171875 80.21875 -100.171875 C 81.945312 -103.628906 87.066406 -105.359375 95.578125 -105.359375 C 103.960938 -105.359375 109.085938 -103.5625 110.953125 -99.96875 C 111.878906 -97.976562 112.441406 -96.21875 112.640625 -94.6875 C 112.835938 -93.15625 112.9375 -90.859375 112.9375 -87.796875 L 112.9375 -17.15625 C 112.9375 -14.226562 112.835938 -12 112.640625 -10.46875 C 112.441406 -8.945312 111.8125 -7.253906 110.75 -5.390625 C 108.75 -1.929688 103.628906 -0.203125 95.390625 -0.203125 C 87.273438 -0.203125 82.285156 -1.796875 80.421875 -4.984375 C 79.085938 -7.242188 78.421875 -9.972656 78.421875 -13.171875 C 77.890625 -12.234375 76.691406 -10.898438 74.828125 -9.171875 C 72.960938 -7.441406 71.164062 -5.984375 69.4375 -4.796875 C 64.914062 -1.867188 59.992188 -0.40625 54.671875 -0.40625 Z M 54.671875 -0.40625 "/></g></g></g><g fill="#000000" fill-opacity="1"><g transform="translate(688.045681, 195.18464)"><g><path d="M 66.453125 -105.15625 C 79.753906 -105.15625 90.828125 -100.066406 99.671875 -89.890625 C 108.515625 -79.710938 112.9375 -67.3125 112.9375 -52.6875 L 112.9375 -17.5625 C 112.9375 -14.5 112.835938 -12.203125 112.640625 -10.671875 C 112.441406 -9.140625 111.878906 -7.445312 110.953125 -5.59375 C 109.085938 -2 103.898438 -0.203125 95.390625 -0.203125 C 85.941406 -0.203125 80.484375 -2.660156 79.015625 -7.578125 C 78.222656 -9.835938 77.828125 -13.234375 77.828125 -17.765625 L 77.828125 -52.875 C 77.828125 -58.332031 76.257812 -62.585938 73.125 -65.640625 C 70 -68.703125 65.8125 -70.234375 60.5625 -70.234375 C 55.3125 -70.234375 51.054688 -68.632812 47.796875 -65.4375 C 44.535156 -62.25 42.90625 -58.0625 42.90625 -52.875 L 42.90625 -17.5625 C 42.90625 -14.5 42.800781 -12.203125 42.59375 -10.671875 C 42.394531 -9.140625 41.765625 -7.445312 40.703125 -5.59375 C 38.972656 -2 33.851562 -0.203125 25.34375 -0.203125 C 16.957031 -0.203125 11.835938 -2 9.984375 -5.59375 C 9.046875 -7.582031 8.476562 -9.34375 8.28125 -10.875 C 8.082031 -12.40625 7.984375 -14.703125 7.984375 -17.765625 L 7.984375 -88.40625 C 7.984375 -91.332031 8.082031 -93.554688 8.28125 -95.078125 C 8.476562 -96.609375 9.109375 -98.304688 10.171875 -100.171875 C 12.035156 -103.492188 17.160156 -105.15625 25.546875 -105.15625 C 33.660156 -105.15625 38.648438 -103.628906 40.515625 -100.578125 C 41.835938 -98.304688 42.5 -95.578125 42.5 -92.390625 C 43.03125 -93.316406 44.226562 -94.644531 46.09375 -96.375 C 47.957031 -98.101562 49.753906 -99.503906 51.484375 -100.578125 C 56.003906 -103.628906 60.992188 -105.15625 66.453125 -105.15625 Z M 66.453125 -105.15625 "/></g></g></g><g fill="#000000" fill-opacity="1"><g transform="translate(808.954934, 195.18464)"><g><path d="M 78.515625 -148.953125 C 79.515625 -150.890625 81.273438 -152.253906 83.796875 -153.046875 C 86.328125 -153.847656 89.6875 -154.25 93.875 -154.25 C 98.070312 -154.25 101.429688 -153.847656 103.953125 -153.046875 C 106.484375 -152.253906 108.25 -150.859375 109.25 -148.859375 C 110.25 -146.867188 110.847656 -145.109375 111.046875 -143.578125 C 111.242188 -142.046875 111.34375 -139.75 111.34375 -136.6875 L 111.34375 -17.5625 C 111.34375 -14.5 111.242188 -12.203125 111.046875 -10.671875 C 110.847656 -9.140625 110.21875 -7.445312 109.15625 -5.59375 C 107.15625 -2 101.53125 -0.203125 92.28125 -0.203125 C 83.039062 -0.203125 77.890625 -3.460938 76.828125 -9.984375 C 71.234375 -3.597656 63.453125 -0.40625 53.484375 -0.40625 C 41.503906 -0.40625 30.59375 -5.625 20.75 -16.0625 C 10.90625 -26.507812 5.984375 -38.679688 5.984375 -52.578125 C 5.984375 -66.484375 10.9375 -78.691406 20.84375 -89.203125 C 30.757812 -99.710938 41.640625 -104.96875 53.484375 -104.96875 C 63.328125 -104.96875 70.972656 -101.640625 76.421875 -94.984375 L 76.421875 -136.890625 C 76.421875 -139.953125 76.519531 -142.242188 76.71875 -143.765625 C 76.925781 -145.296875 77.523438 -147.023438 78.515625 -148.953125 Z M 46.09375 -40.5 C 49.550781 -36.914062 53.738281 -35.125 58.65625 -35.125 C 63.582031 -35.125 67.675781 -36.914062 70.9375 -40.5 C 74.195312 -44.09375 75.828125 -48.050781 75.828125 -52.375 C 75.828125 -56.695312 74.265625 -60.722656 71.140625 -64.453125 C 68.015625 -68.179688 63.789062 -70.046875 58.46875 -70.046875 C 53.144531 -70.046875 48.882812 -68.210938 45.6875 -64.546875 C 42.5 -60.890625 40.90625 -56.863281 40.90625 -52.46875 C 40.90625 -48.082031 42.632812 -44.09375 46.09375 -40.5 Z M 46.09375 -40.5 "/></g></g></g><g fill="#000000" fill-opacity="1"><g transform="translate(928.267988, 195.18464)"><g><path d="M 109.359375 -65.140625 C 109.359375 -56.960938 107.328125 -50.910156 103.265625 -46.984375 C 99.203125 -43.066406 94.710938 -41.109375 89.796875 -41.109375 L 42.5 -41.109375 C 42.5 -37.378906 44.691406 -34.25 49.078125 -31.71875 C 53.472656 -29.195312 57.867188 -27.9375 62.265625 -27.9375 C 69.972656 -27.9375 76.023438 -28.734375 80.421875 -30.328125 L 82.609375 -31.125 C 85.804688 -32.59375 88.46875 -33.328125 90.59375 -33.328125 C 94.851562 -33.328125 98.507812 -30.332031 101.5625 -24.34375 C 103.289062 -20.75 104.15625 -17.691406 104.15625 -15.171875 C 104.15625 -3.328125 89.988281 2.59375 61.65625 2.59375 C 51.8125 2.59375 43.066406 0.898438 35.421875 -2.484375 C 27.773438 -5.878906 21.820312 -10.375 17.5625 -15.96875 C 9.175781 -26.738281 4.984375 -38.773438 4.984375 -52.078125 C 4.984375 -68.835938 10.40625 -82.238281 21.25 -92.28125 C 32.09375 -102.332031 45.628906 -107.359375 61.859375 -107.359375 C 80.347656 -107.359375 93.914062 -100.835938 102.5625 -87.796875 C 107.09375 -80.878906 109.359375 -73.328125 109.359375 -65.140625 Z M 67.25 -59.265625 C 72.300781 -59.265625 74.828125 -61.394531 74.828125 -65.65625 C 74.828125 -68.707031 73.660156 -71.164062 71.328125 -73.03125 C 69.003906 -74.894531 65.679688 -75.828125 61.359375 -75.828125 C 57.035156 -75.828125 52.742188 -74.0625 48.484375 -70.53125 C 44.234375 -67.007812 42.109375 -63.253906 42.109375 -59.265625 Z M 67.25 -59.265625 "/></g></g></g><g fill="#000000" fill-opacity="1"><g transform="translate(1042.593122, 195.18464)"><g><path d="M 78.515625 -148.953125 C 79.515625 -150.890625 81.273438 -152.253906 83.796875 -153.046875 C 86.328125 -153.847656 89.6875 -154.25 93.875 -154.25 C 98.070312 -154.25 101.429688 -153.847656 103.953125 -153.046875 C 106.484375 -152.253906 108.25 -150.859375 109.25 -148.859375 C 110.25 -146.867188 110.847656 -145.109375 111.046875 -143.578125 C 111.242188 -142.046875 111.34375 -139.75 111.34375 -136.6875 L 111.34375 -17.5625 C 111.34375 -14.5 111.242188 -12.203125 111.046875 -10.671875 C 110.847656 -9.140625 110.21875 -7.445312 109.15625 -5.59375 C 107.15625 -2 101.53125 -0.203125 92.28125 -0.203125 C 83.039062 -0.203125 77.890625 -3.460938 76.828125 -9.984375 C 71.234375 -3.597656 63.453125 -0.40625 53.484375 -0.40625 C 41.503906 -0.40625 30.59375 -5.625 20.75 -16.0625 C 10.90625 -26.507812 5.984375 -38.679688 5.984375 -52.578125 C 5.984375 -66.484375 10.9375 -78.691406 20.84375 -89.203125 C 30.757812 -99.710938 41.640625 -104.96875 53.484375 -104.96875 C 63.328125 -104.96875 70.972656 -101.640625 76.421875 -94.984375 L 76.421875 -136.890625 C 76.421875 -139.953125 76.519531 -142.242188 76.71875 -143.765625 C 76.925781 -145.296875 77.523438 -147.023438 78.515625 -148.953125 Z M 46.09375 -40.5 C 49.550781 -36.914062 53.738281 -35.125 58.65625 -35.125 C 63.582031 -35.125 67.675781 -36.914062 70.9375 -40.5 C 74.195312 -44.09375 75.828125 -48.050781 75.828125 -52.375 C 75.828125 -56.695312 74.265625 -60.722656 71.140625 -64.453125 C 68.015625 -68.179688 63.789062 -70.046875 58.46875 -70.046875 C 53.144531 -70.046875 48.882812 -68.210938 45.6875 -64.546875 C 42.5 -60.890625 40.90625 -56.863281 40.90625 -52.46875 C 40.90625 -48.082031 42.632812 -44.09375 46.09375 -40.5 Z M 46.09375 -40.5 "/></g></g></g></g></g></g><path fill="#000000" d="M 130.992188 150.570312 L 125.714844 150.570312 C 124.199219 150.570312 122.816406 149.949219 121.816406 148.945312 L 121.660156 148.796875 C 120.753906 147.8125 120.191406 146.496094 120.191406 145.050781 C 120.191406 143.054688 118.570312 141.425781 116.566406 141.425781 C 114.5625 141.425781 112.945312 143.046875 112.945312 145.050781 C 112.945312 148.429688 114.289062 151.527344 116.472656 153.824219 L 116.699219 154.070312 C 118.789062 156.164062 121.609375 157.527344 124.734375 157.769531 L 124.734375 161.863281 C 124.734375 163.859375 126.351562 165.484375 128.355469 165.484375 C 130.359375 165.484375 131.980469 163.867188 131.980469 161.863281 L 131.980469 157.769531 C 135.101562 157.527344 137.921875 156.164062 140.015625 154.070312 L 140.015625 154.058594 C 142.328125 151.746094 143.761719 148.554688 143.761719 145.050781 C 143.761719 141.542969 142.320312 138.355469 140.015625 136.042969 L 140 136.027344 C 137.6875 133.714844 134.496094 132.28125 130.992188 132.28125 L 125.714844 132.28125 C 124.199219 132.28125 122.816406 131.660156 121.816406 130.65625 L 121.660156 130.507812 C 120.753906 129.523438 120.191406 128.207031 120.191406 126.761719 C 120.191406 125.238281 120.808594 123.859375 121.804688 122.863281 L 121.816406 122.863281 C 122.816406 121.863281 124.199219 121.238281 125.714844 121.238281 L 130.992188 121.238281 C 132.515625 121.238281 133.894531 121.863281 134.894531 122.855469 C 135.890625 123.859375 136.515625 125.246094 136.515625 126.761719 C 136.515625 128.757812 138.132812 130.382812 140.136719 130.382812 C 142.140625 130.382812 143.761719 128.761719 143.761719 126.761719 C 143.761719 123.253906 142.320312 120.066406 140.015625 117.753906 L 140 117.738281 C 137.90625 115.648438 135.09375 114.289062 131.980469 114.042969 L 131.980469 109.945312 C 131.980469 107.941406 130.359375 106.324219 128.355469 106.324219 C 126.351562 106.324219 124.734375 107.941406 124.734375 109.945312 L 124.734375 114.042969 C 121.609375 114.28125 118.789062 115.648438 116.703125 117.746094 C 114.386719 120.066406 112.945312 123.253906 112.945312 126.753906 C 112.945312 130.136719 114.289062 133.230469 116.472656 135.527344 L 116.699219 135.773438 C 119.011719 138.085938 122.207031 139.519531 125.722656 139.519531 L 130.996094 139.519531 C 132.519531 139.519531 133.902344 140.144531 134.902344 141.140625 C 135.898438 142.140625 136.523438 143.527344 136.523438 145.042969 C 136.523438 146.566406 135.898438 147.945312 134.894531 148.9375 C 133.886719 149.949219 132.507812 150.570312 130.992188 150.570312 Z M 130.992188 150.570312 " fill-opacity="1" fill-rule="nonzero"/><path fill="#000000" d="M 128.355469 181.832031 C 141.042969 181.832031 152.53125 176.6875 160.839844 168.382812 C 169.160156 160.074219 174.296875 148.589844 174.296875 135.90625 C 174.296875 123.21875 169.152344 111.738281 160.839844 103.429688 C 152.53125 95.113281 141.042969 89.976562 128.355469 89.976562 C 115.667969 89.976562 104.179688 95.121094 95.871094 103.429688 C 87.554688 111.742188 82.414062 123.226562 82.414062 135.90625 C 82.414062 148.589844 87.5625 160.074219 95.871094 168.382812 C 104.179688 176.695312 115.667969 181.832031 128.355469 181.832031 Z M 101.675781 109.234375 C 108.503906 102.40625 117.9375 98.1875 128.355469 98.1875 C 138.773438 98.1875 148.207031 102.414062 155.035156 109.234375 C 161.863281 116.058594 166.085938 125.492188 166.085938 135.90625 C 166.085938 146.320312 161.855469 155.75 155.035156 162.578125 C 148.207031 169.402344 138.773438 173.621094 128.355469 173.621094 C 117.9375 173.621094 108.503906 169.394531 101.675781 162.578125 C 94.847656 155.75 90.628906 146.320312 90.628906 135.90625 C 90.621094 125.492188 94.847656 116.058594 101.675781 109.234375 Z M 101.675781 109.234375 " fill-opacity="1" fill-rule="nonzero"/><g clip-path="url(#db03a3fd06)"><path fill="#000000" d="M 275.425781 169.820312 L 255.691406 74.328125 L 255.691406 74.308594 C 255.691406 73.722656 255.566406 73.167969 255.347656 72.667969 L 250.488281 49.179688 C 250.035156 46.960938 247.875 45.535156 245.664062 45.988281 L 128.429688 70.203125 L 5.125 70.203125 C 2.863281 70.203125 1.023438 72.042969 1.023438 74.308594 L 1.023438 197.503906 C 1.023438 199.765625 2.863281 201.605469 5.125 201.605469 L 21.972656 201.605469 L 26.046875 221.3125 C 26.5 223.53125 28.664062 224.957031 30.871094 224.503906 L 141.722656 201.605469 L 251.578125 201.605469 C 253.84375 201.605469 255.683594 199.765625 255.683594 197.503906 L 255.683594 178.066406 L 272.226562 174.652344 C 274.445312 174.199219 275.878906 172.039062 275.425781 169.820312 Z M 243.304688 54.832031 L 246.480469 70.203125 L 168.871094 70.203125 Z M 33.238281 215.660156 L 30.335938 201.605469 L 101.292969 201.605469 Z M 247.476562 193.398438 L 9.238281 193.398438 L 9.238281 78.417969 L 247.476562 78.417969 Z M 255.691406 169.710938 L 255.691406 114.753906 L 266.578125 167.460938 Z M 255.691406 169.710938 " fill-opacity="1" fill-rule="nonzero"/></g><path fill="#000000" d="M 26.234375 117.875 C 28.5 117.875 30.335938 116.039062 30.335938 113.773438 L 30.335938 98.394531 L 45.722656 98.394531 C 47.988281 98.394531 49.824219 96.554688 49.824219 94.292969 C 49.824219 92.027344 47.988281 90.1875 45.722656 90.1875 L 26.234375 90.1875 C 23.96875 90.1875 22.128906 92.027344 22.128906 94.292969 L 22.128906 113.773438 C 22.125 116.039062 23.960938 117.875 26.234375 117.875 Z M 26.234375 117.875 " fill-opacity="1" fill-rule="nonzero"/><path fill="#000000" d="M 45.722656 173.417969 L 30.335938 173.417969 L 30.335938 158.035156 C 30.335938 155.773438 28.5 153.933594 26.234375 153.933594 C 23.96875 153.933594 22.128906 155.773438 22.128906 158.035156 L 22.128906 177.519531 C 22.128906 179.78125 23.96875 181.621094 26.234375 181.621094 L 45.722656 181.621094 C 47.988281 181.621094 49.824219 179.78125 49.824219 177.519531 C 49.824219 175.253906 47.988281 173.417969 45.722656 173.417969 Z M 45.722656 173.417969 " fill-opacity="1" fill-rule="nonzero"/><path fill="#000000" d="M 210.984375 98.394531 L 226.367188 98.394531 L 226.367188 113.773438 C 226.367188 116.039062 228.207031 117.875 230.472656 117.875 C 232.734375 117.875 234.574219 116.039062 234.574219 113.773438 L 234.574219 94.292969 C 234.574219 92.027344 232.734375 90.1875 230.472656 90.1875 L 210.984375 90.1875 C 208.71875 90.1875 206.878906 92.027344 206.878906 94.292969 C 206.878906 96.554688 208.71875 98.394531 210.984375 98.394531 Z M 210.984375 98.394531 " fill-opacity="1" fill-rule="nonzero"/><path fill="#000000" d="M 210.984375 181.628906 L 230.472656 181.628906 C 232.734375 181.628906 234.574219 179.789062 234.574219 177.527344 L 234.574219 158.042969 C 234.574219 155.777344 232.734375 153.941406 230.472656 153.941406 C 228.207031 153.941406 226.367188 155.777344 226.367188 158.042969 L 226.367188 173.421875 L 210.984375 173.421875 C 208.71875 173.421875 206.878906 175.261719 206.878906 177.527344 C 206.878906 179.789062 208.71875 181.628906 210.984375 181.628906 Z M 210.984375 181.628906 " fill-opacity="1" fill-rule="nonzero"/></g></g></svg>