<svg xmlns="http://www.w3.org/2000/svg" xmlns:xlink="http://www.w3.org/1999/xlink" width="2000" zoomAndPan="magnify" viewBox="0 0 1500 1499.999933" height="2000" preserveAspectRatio="xMidYMid meet" version="1.0"><defs><g/><clipPath id="81f6a1661e"><path d="M 277 0.558594 L 1452 0.558594 L 1452 245.601562 L 277 245.601562 Z M 277 0.558594 " clip-rule="nonzero"/></clipPath><clipPath id="d5100cf842"><path d="M 338 89 L 455 89 L 455 245.601562 L 338 245.601562 Z M 338 89 " clip-rule="nonzero"/></clipPath><clipPath id="a359d5f4f3"><rect x="0" width="1175" y="0" height="246"/></clipPath><clipPath id="6c96c2efd2"><path d="M 0.402344 46.464844 L 278 46.464844 L 278 227 L 0.402344 227 Z M 0.402344 46.464844 " clip-rule="nonzero"/></clipPath><clipPath id="83f0e947ff"><rect x="0" width="1452" y="0" height="246"/></clipPath></defs><g transform="matrix(1, 0, 0, 1, 24, 694)"><g clip-path="url(#83f0e947ff)"><g clip-path="url(#81f6a1661e)"><g transform="matrix(1, 0, 0, 1, 277, 0.000000000000113687)"><g clip-path="url(#a359d5f4f3)"><g fill="#ffffff" fill-opacity="1"><g transform="translate(0.619149, 197.664243)"><g><path d="M 70.171875 -106.078125 C 79.453125 -106.078125 84.898438 -103.519531 86.515625 -98.40625 C 87.316406 -95.851562 87.71875 -92.492188 87.71875 -88.328125 C 87.71875 -84.160156 87.28125 -80.832031 86.40625 -78.34375 C 85.53125 -75.851562 84.15625 -74.070312 82.28125 -73 C 79.457031 -71.382812 75.351562 -70.578125 69.96875 -70.578125 L 57.0625 -71.390625 L 57.0625 -17.34375 C 57.0625 -12.226562 56.421875 -8.425781 55.140625 -5.9375 C 53.867188 -3.457031 51.921875 -1.8125 49.296875 -1 C 46.679688 -0.195312 43.289062 0.203125 39.125 0.203125 C 34.957031 0.203125 31.628906 -0.234375 29.140625 -1.109375 C 26.648438 -1.984375 24.867188 -3.394531 23.796875 -5.34375 C 22.722656 -7.289062 22.082031 -9.070312 21.875 -10.6875 C 21.675781 -12.300781 21.578125 -14.65625 21.578125 -17.75 L 21.578125 -71.1875 L 14.3125 -71.1875 C 10.820312 -71.457031 8.335938 -72.265625 6.859375 -73.609375 C 4.304688 -76.160156 3.03125 -81.066406 3.03125 -88.328125 C 3.03125 -99.347656 6.992188 -104.859375 14.921875 -104.859375 L 21.578125 -104.859375 L 21.578125 -115.546875 C 21.578125 -125.898438 25.273438 -135.273438 32.671875 -143.671875 C 40.066406 -152.078125 50.753906 -156.28125 64.734375 -156.28125 C 67.828125 -156.28125 70.144531 -156.175781 71.6875 -155.96875 C 73.238281 -155.769531 75.019531 -155.132812 77.03125 -154.0625 C 80.664062 -152.3125 82.484375 -147.132812 82.484375 -138.53125 C 82.484375 -132.082031 81.335938 -127.445312 79.046875 -124.625 C 77.160156 -122.46875 74.203125 -121.257812 70.171875 -121 C 68.960938 -121 67.082031 -121 64.53125 -121 C 59.550781 -121 57.0625 -119.316406 57.0625 -115.953125 L 57.0625 -104.859375 Z M 70.171875 -106.078125 "/></g></g></g><g fill="#ffffff" fill-opacity="1"><g transform="translate(91.350891, 197.664243)"><g><path d="M 55.25 -0.40625 C 41.675781 -0.40625 30.414062 -5.546875 21.46875 -15.828125 C 12.53125 -26.109375 8.0625 -38.644531 8.0625 -53.4375 L 8.0625 -88.734375 C 8.0625 -91.953125 8.160156 -94.300781 8.359375 -95.78125 C 8.566406 -97.257812 9.140625 -99.007812 10.078125 -101.03125 C 11.960938 -104.65625 17.207031 -106.46875 25.8125 -106.46875 C 35.21875 -106.46875 40.726562 -103.914062 42.34375 -98.8125 C 43.15625 -96.65625 43.5625 -93.226562 43.5625 -88.53125 L 43.5625 -53.234375 C 43.5625 -47.722656 45.140625 -43.421875 48.296875 -40.328125 C 51.453125 -37.234375 55.6875 -35.6875 61 -35.6875 C 66.3125 -35.6875 70.613281 -37.300781 73.90625 -40.53125 C 77.195312 -43.757812 78.84375 -47.992188 78.84375 -53.234375 L 78.84375 -88.9375 C 78.84375 -92.019531 78.941406 -94.332031 79.140625 -95.875 C 79.347656 -97.425781 79.988281 -99.210938 81.0625 -101.234375 C 82.8125 -104.722656 87.988281 -106.46875 96.59375 -106.46875 C 105.0625 -106.46875 110.238281 -104.65625 112.125 -101.03125 C 113.0625 -99.007812 113.628906 -97.222656 113.828125 -95.671875 C 114.035156 -94.128906 114.140625 -91.816406 114.140625 -88.734375 L 114.140625 -17.34375 C 114.140625 -14.382812 114.035156 -12.128906 113.828125 -10.578125 C 113.628906 -9.035156 112.992188 -7.320312 111.921875 -5.4375 C 109.898438 -1.945312 104.722656 -0.203125 96.390625 -0.203125 C 88.191406 -0.203125 83.148438 -1.816406 81.265625 -5.046875 C 79.921875 -7.328125 79.25 -10.082031 79.25 -13.3125 C 78.707031 -12.363281 77.492188 -11.015625 75.609375 -9.265625 C 73.734375 -7.523438 71.921875 -6.050781 70.171875 -4.84375 C 65.597656 -1.882812 60.625 -0.40625 55.25 -0.40625 Z M 55.25 -0.40625 "/></g></g></g><g fill="#ffffff" fill-opacity="1"><g transform="translate(213.536316, 197.664243)"><g><path d="M 8.0625 -138.53125 C 8.0625 -141.625 8.160156 -143.941406 8.359375 -145.484375 C 8.566406 -147.035156 9.140625 -148.820312 10.078125 -150.84375 C 11.960938 -154.46875 17.207031 -156.28125 25.8125 -156.28125 C 34.007812 -156.28125 39.117188 -154.46875 41.140625 -150.84375 C 42.210938 -148.820312 42.847656 -147.003906 43.046875 -145.390625 C 43.253906 -143.773438 43.359375 -141.425781 43.359375 -138.34375 L 43.359375 -44.96875 C 43.359375 -40.125 43.757812 -37.0625 44.5625 -35.78125 C 45.375 -34.507812 47.15625 -33.875 49.90625 -33.875 C 52.664062 -33.875 54.515625 -33.769531 55.453125 -33.5625 C 56.390625 -33.363281 57.535156 -32.796875 58.890625 -31.859375 C 61.578125 -30.109375 62.921875 -25.335938 62.921875 -17.546875 C 62.921875 -9.078125 61.578125 -3.898438 58.890625 -2.015625 C 55.390625 0.398438 47.050781 0.800781 33.875 -0.8125 C 23.519531 -2.15625 16.800781 -5.582031 13.71875 -11.09375 C 9.945312 -17.675781 8.0625 -28.160156 8.0625 -42.546875 Z M 8.0625 -138.53125 "/></g></g></g><g fill="#ffffff" fill-opacity="1"><g transform="translate(279.468046, 197.664243)"><g><path d="M 8.0625 -138.53125 C 8.0625 -141.625 8.160156 -143.941406 8.359375 -145.484375 C 8.566406 -147.035156 9.140625 -148.820312 10.078125 -150.84375 C 11.960938 -154.46875 17.207031 -156.28125 25.8125 -156.28125 C 34.007812 -156.28125 39.117188 -154.46875 41.140625 -150.84375 C 42.210938 -148.820312 42.847656 -147.003906 43.046875 -145.390625 C 43.253906 -143.773438 43.359375 -141.425781 43.359375 -138.34375 L 43.359375 -44.96875 C 43.359375 -40.125 43.757812 -37.0625 44.5625 -35.78125 C 45.375 -34.507812 47.15625 -33.875 49.90625 -33.875 C 52.664062 -33.875 54.515625 -33.769531 55.453125 -33.5625 C 56.390625 -33.363281 57.535156 -32.796875 58.890625 -31.859375 C 61.578125 -30.109375 62.921875 -25.335938 62.921875 -17.546875 C 62.921875 -9.078125 61.578125 -3.898438 58.890625 -2.015625 C 55.390625 0.398438 47.050781 0.800781 33.875 -0.8125 C 23.519531 -2.15625 16.800781 -5.582031 13.71875 -11.09375 C 9.945312 -17.675781 8.0625 -28.160156 8.0625 -42.546875 Z M 8.0625 -138.53125 "/></g></g></g><g clip-path="url(#d5100cf842)"><g fill="#ffffff" fill-opacity="1"><g transform="translate(335.317156, 197.664243)"><g><path d="M 106.875 -105.0625 C 114.8125 -101.5625 118.78125 -97.328125 118.78125 -92.359375 C 118.78125 -89.941406 118.238281 -87.65625 117.15625 -85.5 C 116.082031 -83.351562 115.546875 -82.210938 115.546875 -82.078125 L 62.71875 36.09375 C 61.644531 38.644531 60.738281 40.59375 60 41.9375 C 59.257812 43.289062 58.082031 44.570312 56.46875 45.78125 C 54.851562 46.988281 52.832031 47.59375 50.40625 47.59375 C 47.988281 47.59375 44.425781 46.582031 39.71875 44.5625 C 31.789062 41.070312 27.828125 36.90625 27.828125 32.0625 C 27.828125 28.832031 34.28125 13.441406 47.1875 -14.109375 L 7.0625 -81.671875 C 4.375 -86.109375 3.03125 -89.398438 3.03125 -91.546875 C 3.03125 -95.847656 6.660156 -100.148438 13.921875 -104.453125 C 18.484375 -107.140625 22.039062 -108.484375 24.59375 -108.484375 C 27.15625 -108.484375 29.238281 -107.945312 30.84375 -106.875 C 32.457031 -105.800781 33.632812 -104.691406 34.375 -103.546875 C 35.113281 -102.410156 38.8125 -96.160156 45.46875 -84.796875 C 52.125 -73.429688 58.476562 -62.84375 64.53125 -53.03125 C 65.195312 -55.1875 68.820312 -63.488281 75.40625 -77.9375 C 82 -92.394531 85.53125 -100.09375 86 -101.03125 C 86.476562 -101.96875 87.253906 -103.109375 88.328125 -104.453125 C 90.078125 -106.742188 92.53125 -107.890625 95.6875 -107.890625 C 98.84375 -107.890625 102.570312 -106.945312 106.875 -105.0625 Z M 106.875 -105.0625 "/></g></g></g></g><g fill="#ffffff" fill-opacity="1"><g transform="translate(457.099334, 197.664243)"><g><path d="M 105.875 -147.8125 C 108.957031 -147.8125 111.269531 -147.707031 112.8125 -147.5 C 114.363281 -147.300781 116.113281 -146.664062 118.0625 -145.59375 C 120.019531 -144.519531 121.398438 -142.703125 122.203125 -140.140625 C 123.003906 -137.585938 123.40625 -134.160156 123.40625 -129.859375 C 123.40625 -125.554688 123.003906 -122.128906 122.203125 -119.578125 C 121.398438 -117.023438 119.988281 -115.242188 117.96875 -114.234375 C 115.945312 -113.222656 114.164062 -112.617188 112.625 -112.421875 C 111.082031 -112.222656 108.695312 -112.125 105.46875 -112.125 L 43.765625 -112.125 L 43.765625 -91.75 L 83.484375 -91.75 C 86.710938 -91.75 89.097656 -91.648438 90.640625 -91.453125 C 92.191406 -91.253906 93.972656 -90.613281 95.984375 -89.53125 C 99.484375 -87.519531 101.234375 -82.210938 101.234375 -73.609375 C 101.234375 -64.191406 98.675781 -58.609375 93.5625 -56.859375 C 91.414062 -56.191406 87.988281 -55.859375 83.28125 -55.859375 L 43.765625 -55.859375 L 43.765625 -17.75 C 43.765625 -14.519531 43.660156 -12.164062 43.453125 -10.6875 C 43.253906 -9.207031 42.617188 -7.457031 41.546875 -5.4375 C 39.660156 -1.8125 34.414062 0 25.8125 0 C 16.40625 0 10.894531 -2.550781 9.28125 -7.65625 C 8.46875 -9.8125 8.0625 -13.242188 8.0625 -17.953125 L 8.0625 -130.0625 C 8.0625 -136.925781 9.335938 -141.597656 11.890625 -144.078125 C 14.453125 -146.566406 19.296875 -147.8125 26.421875 -147.8125 Z M 105.875 -147.8125 "/></g></g></g><g fill="#ffffff" fill-opacity="1"><g transform="translate(573.43603, 197.664243)"><g><path d="M 55.25 -0.40625 C 41.675781 -0.40625 30.414062 -5.546875 21.46875 -15.828125 C 12.53125 -26.109375 8.0625 -38.644531 8.0625 -53.4375 L 8.0625 -88.734375 C 8.0625 -91.953125 8.160156 -94.300781 8.359375 -95.78125 C 8.566406 -97.257812 9.140625 -99.007812 10.078125 -101.03125 C 11.960938 -104.65625 17.207031 -106.46875 25.8125 -106.46875 C 35.21875 -106.46875 40.726562 -103.914062 42.34375 -98.8125 C 43.15625 -96.65625 43.5625 -93.226562 43.5625 -88.53125 L 43.5625 -53.234375 C 43.5625 -47.722656 45.140625 -43.421875 48.296875 -40.328125 C 51.453125 -37.234375 55.6875 -35.6875 61 -35.6875 C 66.3125 -35.6875 70.613281 -37.300781 73.90625 -40.53125 C 77.195312 -43.757812 78.84375 -47.992188 78.84375 -53.234375 L 78.84375 -88.9375 C 78.84375 -92.019531 78.941406 -94.332031 79.140625 -95.875 C 79.347656 -97.425781 79.988281 -99.210938 81.0625 -101.234375 C 82.8125 -104.722656 87.988281 -106.46875 96.59375 -106.46875 C 105.0625 -106.46875 110.238281 -104.65625 112.125 -101.03125 C 113.0625 -99.007812 113.628906 -97.222656 113.828125 -95.671875 C 114.035156 -94.128906 114.140625 -91.816406 114.140625 -88.734375 L 114.140625 -17.34375 C 114.140625 -14.382812 114.035156 -12.128906 113.828125 -10.578125 C 113.628906 -9.035156 112.992188 -7.320312 111.921875 -5.4375 C 109.898438 -1.945312 104.722656 -0.203125 96.390625 -0.203125 C 88.191406 -0.203125 83.148438 -1.816406 81.265625 -5.046875 C 79.921875 -7.328125 79.25 -10.082031 79.25 -13.3125 C 78.707031 -12.363281 77.492188 -11.015625 75.609375 -9.265625 C 73.734375 -7.523438 71.921875 -6.050781 70.171875 -4.84375 C 65.597656 -1.882812 60.625 -0.40625 55.25 -0.40625 Z M 55.25 -0.40625 "/></g></g></g><g fill="#ffffff" fill-opacity="1"><g transform="translate(695.621454, 197.664243)"><g><path d="M 67.15625 -106.265625 C 80.59375 -106.265625 91.78125 -101.125 100.71875 -90.84375 C 109.664062 -80.5625 114.140625 -68.023438 114.140625 -53.234375 L 114.140625 -17.75 C 114.140625 -14.65625 114.035156 -12.332031 113.828125 -10.78125 C 113.628906 -9.238281 113.0625 -7.523438 112.125 -5.640625 C 110.238281 -2.015625 104.992188 -0.203125 96.390625 -0.203125 C 86.847656 -0.203125 81.335938 -2.6875 79.859375 -7.65625 C 79.046875 -9.945312 78.640625 -13.378906 78.640625 -17.953125 L 78.640625 -53.4375 C 78.640625 -58.945312 77.0625 -63.25 73.90625 -66.34375 C 70.75 -69.4375 66.515625 -70.984375 61.203125 -70.984375 C 55.890625 -70.984375 51.585938 -69.367188 48.296875 -66.140625 C 45.003906 -62.910156 43.359375 -58.675781 43.359375 -53.4375 L 43.359375 -17.75 C 43.359375 -14.65625 43.253906 -12.332031 43.046875 -10.78125 C 42.847656 -9.238281 42.210938 -7.523438 41.140625 -5.640625 C 39.390625 -2.015625 34.210938 -0.203125 25.609375 -0.203125 C 17.140625 -0.203125 11.960938 -2.015625 10.078125 -5.640625 C 9.140625 -7.660156 8.566406 -9.441406 8.359375 -10.984375 C 8.160156 -12.535156 8.0625 -14.859375 8.0625 -17.953125 L 8.0625 -89.328125 C 8.0625 -92.285156 8.160156 -94.535156 8.359375 -96.078125 C 8.566406 -97.628906 9.207031 -99.347656 10.28125 -101.234375 C 12.164062 -104.585938 17.34375 -106.265625 25.8125 -106.265625 C 34.007812 -106.265625 39.050781 -104.722656 40.9375 -101.640625 C 42.28125 -99.347656 42.953125 -96.585938 42.953125 -93.359375 C 43.492188 -94.304688 44.703125 -95.648438 46.578125 -97.390625 C 48.460938 -99.140625 50.28125 -100.554688 52.03125 -101.640625 C 56.601562 -104.722656 61.644531 -106.265625 67.15625 -106.265625 Z M 67.15625 -106.265625 "/></g></g></g><g fill="#ffffff" fill-opacity="1"><g transform="translate(817.806879, 197.664243)"><g><path d="M 79.34375 -150.53125 C 80.351562 -152.476562 82.132812 -153.851562 84.6875 -154.65625 C 87.25 -155.46875 90.644531 -155.875 94.875 -155.875 C 99.113281 -155.875 102.507812 -155.46875 105.0625 -154.65625 C 107.613281 -153.851562 109.394531 -152.441406 110.40625 -150.421875 C 111.414062 -148.410156 112.019531 -146.628906 112.21875 -145.078125 C 112.425781 -143.535156 112.53125 -141.222656 112.53125 -138.140625 L 112.53125 -17.75 C 112.53125 -14.65625 112.425781 -12.332031 112.21875 -10.78125 C 112.019531 -9.238281 111.382812 -7.523438 110.3125 -5.640625 C 108.289062 -2.015625 102.609375 -0.203125 93.265625 -0.203125 C 83.921875 -0.203125 78.710938 -3.492188 77.640625 -10.078125 C 71.992188 -3.628906 64.128906 -0.40625 54.046875 -0.40625 C 41.941406 -0.40625 30.914062 -5.679688 20.96875 -16.234375 C 11.019531 -26.785156 6.046875 -39.082031 6.046875 -53.125 C 6.046875 -67.175781 11.050781 -79.515625 21.0625 -90.140625 C 31.082031 -100.765625 42.078125 -106.078125 54.046875 -106.078125 C 63.992188 -106.078125 71.722656 -102.710938 77.234375 -95.984375 L 77.234375 -138.34375 C 77.234375 -141.425781 77.332031 -143.738281 77.53125 -145.28125 C 77.738281 -146.832031 78.34375 -148.582031 79.34375 -150.53125 Z M 46.578125 -40.921875 C 50.078125 -37.296875 54.3125 -35.484375 59.28125 -35.484375 C 64.257812 -35.484375 68.394531 -37.296875 71.6875 -40.921875 C 74.976562 -44.554688 76.625 -48.554688 76.625 -52.921875 C 76.625 -57.296875 75.046875 -61.363281 71.890625 -65.125 C 68.734375 -68.894531 64.460938 -70.78125 59.078125 -70.78125 C 53.703125 -70.78125 49.398438 -68.929688 46.171875 -65.234375 C 42.953125 -61.535156 41.34375 -57.46875 41.34375 -53.03125 C 41.34375 -48.59375 43.085938 -44.554688 46.578125 -40.921875 Z M 46.578125 -40.921875 "/></g></g></g><g fill="#ffffff" fill-opacity="1"><g transform="translate(938.379257, 197.664243)"><g><path d="M 110.5 -65.84375 C 110.5 -57.570312 108.445312 -51.453125 104.34375 -47.484375 C 100.25 -43.523438 95.71875 -41.546875 90.75 -41.546875 L 42.953125 -41.546875 C 42.953125 -37.773438 45.171875 -34.613281 49.609375 -32.0625 C 54.046875 -29.507812 58.484375 -28.234375 62.921875 -28.234375 C 70.710938 -28.234375 76.828125 -29.039062 81.265625 -30.65625 L 83.484375 -31.453125 C 86.710938 -32.929688 89.398438 -33.671875 91.546875 -33.671875 C 95.847656 -33.671875 99.546875 -30.648438 102.640625 -24.609375 C 104.390625 -20.972656 105.265625 -17.878906 105.265625 -15.328125 C 105.265625 -3.359375 90.945312 2.625 62.3125 2.625 C 52.363281 2.625 43.523438 0.910156 35.796875 -2.515625 C 28.066406 -5.941406 22.050781 -10.476562 17.75 -16.125 C 9.28125 -27.019531 5.046875 -39.1875 5.046875 -52.625 C 5.046875 -69.570312 10.519531 -83.117188 21.46875 -93.265625 C 32.425781 -103.410156 46.109375 -108.484375 62.515625 -108.484375 C 81.203125 -108.484375 94.914062 -101.898438 103.65625 -88.734375 C 108.21875 -81.742188 110.5 -74.113281 110.5 -65.84375 Z M 67.953125 -59.890625 C 73.066406 -59.890625 75.625 -62.039062 75.625 -66.34375 C 75.625 -69.4375 74.445312 -71.921875 72.09375 -73.796875 C 69.738281 -75.679688 66.375 -76.625 62 -76.625 C 57.632812 -76.625 53.300781 -74.84375 49 -71.28125 C 44.695312 -67.71875 42.546875 -63.921875 42.546875 -59.890625 Z M 67.953125 -59.890625 "/></g></g></g><g fill="#ffffff" fill-opacity="1"><g transform="translate(1053.91107, 197.664243)"><g><path d="M 79.34375 -150.53125 C 80.351562 -152.476562 82.132812 -153.851562 84.6875 -154.65625 C 87.25 -155.46875 90.644531 -155.875 94.875 -155.875 C 99.113281 -155.875 102.507812 -155.46875 105.0625 -154.65625 C 107.613281 -153.851562 109.394531 -152.441406 110.40625 -150.421875 C 111.414062 -148.410156 112.019531 -146.628906 112.21875 -145.078125 C 112.425781 -143.535156 112.53125 -141.222656 112.53125 -138.140625 L 112.53125 -17.75 C 112.53125 -14.65625 112.425781 -12.332031 112.21875 -10.78125 C 112.019531 -9.238281 111.382812 -7.523438 110.3125 -5.640625 C 108.289062 -2.015625 102.609375 -0.203125 93.265625 -0.203125 C 83.921875 -0.203125 78.710938 -3.492188 77.640625 -10.078125 C 71.992188 -3.628906 64.128906 -0.40625 54.046875 -0.40625 C 41.941406 -0.40625 30.914062 -5.679688 20.96875 -16.234375 C 11.019531 -26.785156 6.046875 -39.082031 6.046875 -53.125 C 6.046875 -67.175781 11.050781 -79.515625 21.0625 -90.140625 C 31.082031 -100.765625 42.078125 -106.078125 54.046875 -106.078125 C 63.992188 -106.078125 71.722656 -102.710938 77.234375 -95.984375 L 77.234375 -138.34375 C 77.234375 -141.425781 77.332031 -143.738281 77.53125 -145.28125 C 77.738281 -146.832031 78.34375 -148.582031 79.34375 -150.53125 Z M 46.578125 -40.921875 C 50.078125 -37.296875 54.3125 -35.484375 59.28125 -35.484375 C 64.257812 -35.484375 68.394531 -37.296875 71.6875 -40.921875 C 74.976562 -44.554688 76.625 -48.554688 76.625 -52.921875 C 76.625 -57.296875 75.046875 -61.363281 71.890625 -65.125 C 68.734375 -68.894531 64.460938 -70.78125 59.078125 -70.78125 C 53.703125 -70.78125 49.398438 -68.929688 46.171875 -65.234375 C 42.953125 -61.535156 41.34375 -57.46875 41.34375 -53.03125 C 41.34375 -48.59375 43.085938 -44.554688 46.578125 -40.921875 Z M 46.578125 -40.921875 "/></g></g></g></g></g></g><path fill="#ffffff" d="M 131.453125 152.34375 L 126.136719 152.34375 C 124.605469 152.34375 123.214844 151.714844 122.207031 150.703125 L 122.046875 150.550781 C 121.132812 149.5625 120.566406 148.234375 120.566406 146.777344 C 120.566406 144.761719 118.933594 143.125 116.914062 143.125 C 114.894531 143.125 113.261719 144.753906 113.261719 146.777344 C 113.261719 150.1875 114.617188 153.304688 116.816406 155.621094 L 117.046875 155.871094 C 119.15625 157.980469 122 159.359375 125.144531 159.601562 L 125.144531 163.730469 C 125.144531 165.742188 126.777344 167.382812 128.796875 167.382812 C 130.816406 167.382812 132.449219 165.75 132.449219 163.730469 L 132.449219 159.601562 C 135.597656 159.359375 138.441406 157.980469 140.550781 155.871094 L 140.550781 155.859375 C 142.882812 153.527344 144.328125 150.308594 144.328125 146.777344 C 144.328125 143.242188 142.875 140.023438 140.550781 137.695312 L 140.535156 137.679688 C 138.207031 135.347656 134.988281 133.902344 131.453125 133.902344 L 126.136719 133.902344 C 124.605469 133.902344 123.214844 133.273438 122.207031 132.261719 L 122.046875 132.109375 C 121.132812 131.121094 120.566406 129.792969 120.566406 128.335938 C 120.566406 126.800781 121.1875 125.410156 122.191406 124.40625 L 122.207031 124.40625 C 123.214844 123.394531 124.605469 122.765625 126.136719 122.765625 L 131.453125 122.765625 C 132.988281 122.765625 134.378906 123.394531 135.390625 124.398438 C 136.394531 125.410156 137.023438 126.804688 137.023438 128.335938 C 137.023438 130.347656 138.65625 131.988281 140.675781 131.988281 C 142.695312 131.988281 144.328125 130.355469 144.328125 128.335938 C 144.328125 124.800781 142.875 121.582031 140.550781 119.253906 L 140.535156 119.238281 C 138.425781 117.128906 135.589844 115.757812 132.449219 115.511719 L 132.449219 111.378906 C 132.449219 109.359375 130.816406 107.726562 128.796875 107.726562 C 126.777344 107.726562 125.144531 109.359375 125.144531 111.378906 L 125.144531 115.511719 C 122 115.753906 119.15625 117.128906 117.054688 119.246094 C 114.714844 121.582031 113.261719 124.800781 113.261719 128.328125 C 113.261719 131.738281 114.617188 134.855469 116.816406 137.175781 L 117.046875 137.421875 C 119.375 139.753906 122.601562 141.199219 126.140625 141.199219 L 131.460938 141.199219 C 132.996094 141.199219 134.386719 141.828125 135.398438 142.832031 C 136.398438 143.84375 137.03125 145.238281 137.03125 146.769531 C 137.03125 148.304688 136.398438 149.695312 135.390625 150.699219 C 134.375 151.714844 132.984375 152.34375 131.453125 152.34375 Z M 131.453125 152.34375 " fill-opacity="1" fill-rule="nonzero"/><path fill="#ffffff" d="M 128.796875 183.863281 C 141.585938 183.863281 153.167969 178.675781 161.542969 170.300781 C 169.925781 161.925781 175.109375 150.34375 175.109375 137.554688 C 175.109375 124.765625 169.921875 113.1875 161.542969 104.808594 C 153.167969 96.425781 141.585938 91.246094 128.796875 91.246094 C 116.007812 91.246094 104.429688 96.433594 96.050781 104.808594 C 87.667969 113.191406 82.488281 124.773438 82.488281 137.554688 C 82.488281 150.34375 87.675781 161.925781 96.050781 170.300781 C 104.429688 178.683594 116.007812 183.863281 128.796875 183.863281 Z M 101.902344 110.660156 C 108.785156 103.777344 118.296875 99.523438 128.796875 99.523438 C 139.296875 99.523438 148.808594 103.785156 155.691406 110.660156 C 162.574219 117.542969 166.828125 127.054688 166.828125 137.554688 C 166.828125 148.054688 162.566406 157.566406 155.691406 164.449219 C 148.808594 171.332031 139.296875 175.585938 128.796875 175.585938 C 118.296875 175.585938 108.785156 171.324219 101.902344 164.449219 C 95.023438 157.566406 90.769531 148.054688 90.769531 137.554688 C 90.761719 127.054688 95.023438 117.542969 101.902344 110.660156 Z M 101.902344 110.660156 " fill-opacity="1" fill-rule="nonzero"/><g clip-path="url(#6c96c2efd2)"><path fill="#ffffff" d="M 277.046875 171.753906 L 257.152344 75.46875 L 257.152344 75.445312 C 257.152344 74.859375 257.027344 74.296875 256.804688 73.792969 L 251.910156 50.109375 C 251.453125 47.875 249.273438 46.4375 247.046875 46.890625 L 128.875 71.308594 L 4.582031 71.308594 C 2.296875 71.308594 0.445312 73.164062 0.445312 75.445312 L 0.445312 199.664062 C 0.445312 201.945312 2.296875 203.800781 4.582031 203.800781 L 21.5625 203.800781 L 25.671875 223.671875 C 26.128906 225.90625 28.304688 227.347656 30.535156 226.890625 L 142.273438 203.800781 L 253.007812 203.800781 C 255.292969 203.800781 257.144531 201.945312 257.144531 199.664062 L 257.144531 180.066406 L 273.820312 176.621094 C 276.054688 176.167969 277.503906 173.988281 277.046875 171.753906 Z M 244.667969 55.808594 L 247.867188 71.308594 L 169.636719 71.308594 Z M 32.921875 217.972656 L 29.992188 203.800781 L 101.515625 203.800781 Z M 248.871094 195.527344 L 8.722656 195.527344 L 8.722656 79.589844 L 248.871094 79.589844 Z M 257.152344 171.644531 L 257.152344 116.230469 L 268.128906 169.375 Z M 257.152344 171.644531 " fill-opacity="1" fill-rule="nonzero"/></g><path fill="#ffffff" d="M 25.859375 119.375 C 28.140625 119.375 29.992188 117.523438 29.992188 115.242188 L 29.992188 99.730469 L 45.503906 99.730469 C 47.785156 99.730469 49.636719 97.878906 49.636719 95.597656 C 49.636719 93.3125 47.785156 91.460938 45.503906 91.460938 L 25.859375 91.460938 C 23.574219 91.460938 21.722656 93.3125 21.722656 95.597656 L 21.722656 115.242188 C 21.714844 117.523438 23.566406 119.375 25.859375 119.375 Z M 25.859375 119.375 " fill-opacity="1" fill-rule="nonzero"/><path fill="#ffffff" d="M 45.503906 175.378906 L 29.992188 175.378906 L 29.992188 159.871094 C 29.992188 157.585938 28.140625 155.734375 25.859375 155.734375 C 23.574219 155.734375 21.722656 157.585938 21.722656 159.871094 L 21.722656 179.515625 C 21.722656 181.796875 23.574219 183.652344 25.859375 183.652344 L 45.503906 183.652344 C 47.785156 183.652344 49.636719 181.796875 49.636719 179.515625 C 49.636719 177.230469 47.785156 175.378906 45.503906 175.378906 Z M 45.503906 175.378906 " fill-opacity="1" fill-rule="nonzero"/><path fill="#ffffff" d="M 212.085938 99.730469 L 227.59375 99.730469 L 227.59375 115.242188 C 227.59375 117.523438 229.449219 119.375 231.730469 119.375 C 234.015625 119.375 235.867188 117.523438 235.867188 115.242188 L 235.867188 95.597656 C 235.867188 93.3125 234.015625 91.460938 231.730469 91.460938 L 212.085938 91.460938 C 209.804688 91.460938 207.949219 93.3125 207.949219 95.597656 C 207.949219 97.878906 209.804688 99.730469 212.085938 99.730469 Z M 212.085938 99.730469 " fill-opacity="1" fill-rule="nonzero"/><path fill="#ffffff" d="M 212.085938 183.65625 L 231.730469 183.65625 C 234.015625 183.65625 235.867188 181.804688 235.867188 179.519531 L 235.867188 159.875 C 235.867188 157.59375 234.015625 155.738281 231.730469 155.738281 C 229.449219 155.738281 227.59375 157.59375 227.59375 159.875 L 227.59375 175.382812 L 212.085938 175.382812 C 209.804688 175.382812 207.949219 177.238281 207.949219 179.519531 C 207.949219 181.804688 209.804688 183.65625 212.085938 183.65625 Z M 212.085938 183.65625 " fill-opacity="1" fill-rule="nonzero"/></g></g></svg>